<?xml version="1.0" encoding="iso-8859-1"?>
<!-- Generator: Adobe Illustrator 19.0.0, SVG Export Plug-In . SVG Version: 6.00 Build 0)  -->
<svg version="1.1" id="Capa_1" xmlns="http://www.w3.org/2000/svg" xmlns:xlink="http://www.w3.org/1999/xlink" x="0px" y="0px"
	 viewBox="0 0 480 480" style="enable-background:new 0 0 480 480;" xml:space="preserve">
<polygon style="fill:#FF9F1C;" points="312,200 289.848,190.152 288,192 289.848,190.152 240,168 168,200 240,232 "/>
<polygon style="fill:#60C4C2;" points="168,200 168,240 168,280 240,312 240,232 "/>
<polygon style="fill:#CBF3F0;" points="240,232 240,312 289.848,289.848 288,288 289.848,289.848 312,280 312,240 312,200 "/>
<g>
	<circle style="fill:#60C4C2;" cx="72" cy="240" r="64"/>
	<circle style="fill:#60C4C2;" cx="408" cy="240" r="64"/>
	<circle style="fill:#60C4C2;" cx="72" cy="72" r="64"/>
	<circle style="fill:#60C4C2;" cx="408" cy="72" r="64"/>
	<circle style="fill:#60C4C2;" cx="240" cy="72" r="64"/>
	<circle style="fill:#60C4C2;" cx="72" cy="408" r="64"/>
	<circle style="fill:#60C4C2;" cx="408" cy="408" r="64"/>
	<circle style="fill:#60C4C2;" cx="240" cy="408" r="64"/>
</g>
<g>
	<path style="fill:#3F3F3F;" d="M64,244.688l-18.344-18.344l-11.312,11.312l24,24C59.904,263.216,61.952,264,64,264
		s4.096-0.784,5.656-2.344l40-40l-11.312-11.312L64,244.688z"/>
	<path style="fill:#3F3F3F;" d="M400,264c2.048,0,4.096-0.784,5.656-2.344l40-40l-11.312-11.312L400,244.688l-18.344-18.344
		l-11.312,11.312l24,24C395.904,263.216,397.952,264,400,264z"/>
	<path style="fill:#3F3F3F;" d="M64,76.688L45.656,58.344L34.344,69.656l24,24C59.904,95.216,61.952,96,64,96
		s4.096-0.784,5.656-2.344l40-40L98.344,42.344L64,76.688z"/>
	<path style="fill:#3F3F3F;" d="M408,144c39.696,0,72-32.296,72-72S447.696,0,408,0s-72,32.296-72,72
		c0,16.976,5.936,32.568,15.8,44.888l-63.72,63.72L248,162.8v-19.272C283.944,139.536,312,109,312,72c0-39.704-32.304-72-72-72
		s-72,32.296-72,72c0,37,28.056,67.536,64,71.528V162.8l-40.08,17.808l-63.72-63.72C138.064,104.568,144,88.976,144,72
		c0-39.704-32.304-72-72-72S0,32.296,0,72s32.304,72,72,72c16.976,0,32.568-5.936,44.888-15.8l59.376,59.376l-11.512,5.112
		c-0.168,0.072-0.288,0.2-0.448,0.288c-0.216,0.112-0.456,0.184-0.664,0.32c-0.176,0.112-0.312,0.272-0.48,0.4
		c-0.224,0.176-0.44,0.344-0.64,0.544c-0.328,0.312-0.616,0.648-0.888,1.016c-0.16,0.216-0.328,0.416-0.464,0.648
		c-0.248,0.416-0.44,0.856-0.608,1.312c-0.08,0.216-0.192,0.416-0.256,0.64C160.12,198.544,160,199.264,160,200v32h-16.472
		c-4-35.944-34.536-64-71.528-64c-39.696,0-72,32.296-72,72s32.304,72,72,72c36.992,0,67.536-28.056,71.528-64H160v32
		c0,3.168,1.864,6.024,4.752,7.312l11.512,5.112L116.888,351.8C104.568,341.936,88.976,336,72,336c-39.696,0-72,32.296-72,72
		s32.304,72,72,72s72-32.296,72-72c0-16.976-5.936-32.568-15.8-44.888l63.72-63.72L232,317.2v19.272
		C196.056,340.464,168,371,168,408c0,39.704,32.304,72,72,72s72-32.296,72-72c0-37-28.056-67.536-64-71.528V317.2l40.08-17.808
		l63.72,63.72C341.936,375.432,336,391.024,336,408c0,39.704,32.304,72,72,72s72-32.296,72-72s-32.304-72-72-72
		c-16.976,0-32.568,5.936-44.888,15.8l-59.376-59.376l11.512-5.112c2.888-1.288,4.752-4.144,4.752-7.312v-32h16.472
		c4,35.944,34.536,64,71.528,64c39.696,0,72-32.296,72-72s-32.304-72-72-72c-36.992,0-67.536,28.056-71.528,64H320v-32
		c0-0.736-0.12-1.456-0.312-2.152c-0.064-0.224-0.168-0.424-0.256-0.64c-0.168-0.456-0.36-0.896-0.608-1.312
		c-0.136-0.232-0.304-0.432-0.464-0.648c-0.272-0.36-0.56-0.696-0.888-1.016c-0.2-0.192-0.416-0.368-0.64-0.544
		c-0.168-0.128-0.296-0.288-0.48-0.4c-0.216-0.136-0.456-0.208-0.672-0.328c-0.152-0.08-0.272-0.2-0.432-0.272l-11.512-5.112
		l59.376-59.376C375.432,138.064,391.024,144,408,144z M72,128c-30.88,0-56-25.128-56-56s25.12-56,56-56s56,25.128,56,56
		S102.88,128,72,128z M72,296c-30.88,0-56-25.128-56-56s25.12-56,56-56s56,25.128,56,56S102.88,296,72,296z M72,464
		c-30.88,0-56-25.128-56-56s25.12-56,56-56s56,25.128,56,56S102.88,464,72,464z M408,352c30.88,0,56,25.128,56,56s-25.12,56-56,56
		s-56-25.128-56-56S377.12,352,408,352z M408,184c30.88,0,56,25.128,56,56s-25.12,56-56,56s-56-25.128-56-56S377.12,184,408,184z
		 M257.432,215.496L240,223.24l-17.432-7.744L187.704,200L240,176.76L292.296,200L257.432,215.496z M184,72c0-30.872,25.12-56,56-56
		s56,25.128,56,56s-25.12,56-56,56S184,102.872,184,72z M176,212.312l56,24.888v62.488l-56-24.88V212.312z M296,408
		c0,30.872-25.12,56-56,56s-56-25.128-56-56s25.12-56,56-56S296,377.128,296,408z M304,274.808l-56,24.88V237.2l56-24.888V274.808z
		 M408,16c30.88,0,56,25.128,56,56s-25.12,56-56,56s-56-25.128-56-56S377.12,16,408,16z"/>
	<path style="fill:#3F3F3F;" d="M400,96c2.048,0,4.096-0.784,5.656-2.344l40-40l-11.312-11.312L400,76.688l-18.344-18.344
		l-11.312,11.312l24,24C395.904,95.216,397.952,96,400,96z"/>
	<path style="fill:#3F3F3F;" d="M266.344,42.344L232,76.688l-18.344-18.344l-11.312,11.312l24,24C227.904,95.216,229.952,96,232,96
		s4.096-0.784,5.656-2.344l40-40L266.344,42.344z"/>
	<path style="fill:#3F3F3F;" d="M64,412.688l-18.344-18.344l-11.312,11.312l24,24C59.904,431.216,61.952,432,64,432
		s4.096-0.784,5.656-2.344l40-40l-11.312-11.312L64,412.688z"/>
	<path style="fill:#3F3F3F;" d="M400,432c2.048,0,4.096-0.784,5.656-2.344l40-40l-11.312-11.312L400,412.688l-18.344-18.344
		l-11.312,11.312l24,24C395.904,431.216,397.952,432,400,432z"/>
	<path style="fill:#3F3F3F;" d="M213.656,394.344l-11.312,11.312l24,24c1.56,1.56,3.608,2.344,5.656,2.344s4.096-0.784,5.656-2.344
		l40-40l-11.312-11.312L232,412.688L213.656,394.344z"/>
</g>
<g>
</g>
<g>
</g>
<g>
</g>
<g>
</g>
<g>
</g>
<g>
</g>
<g>
</g>
<g>
</g>
<g>
</g>
<g>
</g>
<g>
</g>
<g>
</g>
<g>
</g>
<g>
</g>
<g>
</g>
</svg>
